<?xml version="1.0" encoding="UTF-8"?>
<svg xmlns="http://www.w3.org/2000/svg" xmlns:xlink="http://www.w3.org/1999/xlink" width="16px" height="16px" viewBox="0 0 16 16" version="1.1">
<g id="surface1">
<path style=" stroke:none;fill-rule:nonzero;fill:rgb(100%,100%,100%);fill-opacity:1;" d="M 6.050781 1.300781 C 4.699219 3.050781 4.75 3.5 6.25 3.5 C 7.351562 3.5 7.5 3.300781 7.5 1.75 C 7.5 0.800781 7.398438 0 7.300781 0 C 7.148438 0 6.601562 0.601562 6.050781 1.300781 Z M 6.050781 1.300781 "/>
<path style=" stroke:none;fill-rule:nonzero;fill:rgb(100%,100%,100%);fill-opacity:1;" d="M 8.5 1.601562 C 8.5 3.300781 8.648438 3.5 9.75 3.5 C 11.300781 3.5 11.351562 2.949219 9.75 1.148438 L 8.550781 -0.25 Z M 8.5 1.601562 "/>
<path style=" stroke:none;fill-rule:nonzero;fill:rgb(100%,100%,100%);fill-opacity:1;" d="M 3.351562 1.550781 C 1.800781 2.75 1.601562 3.5 2.898438 3.5 C 3.449219 3.5 4.101562 2.898438 4.449219 2.199219 C 5.25 0.449219 4.949219 0.25 3.351562 1.550781 Z M 3.351562 1.550781 "/>
<path style=" stroke:none;fill-rule:nonzero;fill:rgb(100%,100%,100%);fill-opacity:1;" d="M 11 0.699219 C 11 1.699219 12.351562 3.5 13.101562 3.5 C 14.25 3.5 14.25 2.851562 13.148438 1.898438 C 12 0.949219 11 0.351562 11 0.699219 Z M 11 0.699219 "/>
<path style=" stroke:none;fill-rule:nonzero;fill:rgb(100%,100%,100%);fill-opacity:1;" d="M 0.300781 5.601562 C -0.148438 7.398438 -0.101562 7.5 1.75 7.5 C 3.351562 7.5 3.5 7.398438 3.5 6 C 3.5 4.699219 3.351562 4.5 2.050781 4.5 C 1 4.5 0.550781 4.800781 0.300781 5.601562 Z M 0.300781 5.601562 "/>
<path style=" stroke:none;fill-rule:nonzero;fill:rgb(100%,100%,100%);fill-opacity:1;" d="M 4.5 6 C 4.5 7.351562 4.648438 7.5 6 7.5 C 7.351562 7.5 7.5 7.351562 7.5 6 C 7.5 4.648438 7.351562 4.5 6 4.5 C 4.648438 4.5 4.5 4.648438 4.5 6 Z M 4.5 6 "/>
<path style=" stroke:none;fill-rule:nonzero;fill:rgb(100%,100%,100%);fill-opacity:1;" d="M 8.5 6 C 8.5 7.351562 8.648438 7.5 10 7.5 C 11.351562 7.5 11.5 7.351562 11.5 6 C 11.5 4.648438 11.351562 4.5 10 4.5 C 8.648438 4.5 8.5 4.648438 8.5 6 Z M 8.5 6 "/>
<path style=" stroke:none;fill-rule:nonzero;fill:rgb(100%,100%,100%);fill-opacity:1;" d="M 12.5 6 C 12.5 7.398438 12.648438 7.5 14.300781 7.5 C 15.949219 7.5 16.101562 7.398438 15.800781 6.351562 C 15.648438 5.75 15.5 5.101562 15.5 4.851562 C 15.5 4.648438 14.851562 4.5 14 4.5 C 12.648438 4.5 12.5 4.648438 12.5 6 Z M 12.5 6 "/>
<path style=" stroke:none;fill-rule:nonzero;fill:rgb(100%,100%,100%);fill-opacity:1;" d="M 0 8.949219 C 0 10.550781 1.050781 12 2.25 12 C 3.351562 12 3.5 11.800781 3.5 10.25 C 3.5 8.601562 3.398438 8.5 1.75 8.5 C 0.800781 8.5 0 8.699219 0 8.949219 Z M 0 8.949219 "/>
<path style=" stroke:none;fill-rule:nonzero;fill:rgb(100%,100%,100%);fill-opacity:1;" d="M 4.601562 10.101562 C 4.699219 11.5 5 11.800781 6.148438 11.898438 C 7.398438 12.050781 7.5 11.949219 7.5 10.300781 C 7.5 8.648438 7.398438 8.5 5.949219 8.5 C 4.550781 8.5 4.449219 8.601562 4.601562 10.101562 Z M 4.601562 10.101562 "/>
<path style=" stroke:none;fill-rule:nonzero;fill:rgb(100%,100%,100%);fill-opacity:1;" d="M 8.5 10.300781 C 8.5 11.949219 8.601562 12.050781 9.898438 11.898438 C 11 11.800781 11.300781 11.5 11.398438 10.101562 C 11.550781 8.601562 11.449219 8.5 10.050781 8.5 C 8.601562 8.5 8.5 8.648438 8.5 10.300781 Z M 8.5 10.300781 "/>
<path style=" stroke:none;fill-rule:nonzero;fill:rgb(100%,100%,100%);fill-opacity:1;" d="M 12.5 10.25 C 12.5 11.800781 12.648438 12 13.75 12 C 14.648438 12 15.148438 11.648438 15.5 10.699219 C 16.25 8.75 16.148438 8.5 14.25 8.5 C 12.601562 8.5 12.5 8.601562 12.5 10.25 Z M 12.5 10.25 "/>
<path style=" stroke:none;fill-rule:nonzero;fill:rgb(100%,100%,100%);fill-opacity:1;" d="M 2 12.949219 C 2 13.5 4.550781 15.601562 4.851562 15.300781 C 4.949219 15.199219 4.75 14.550781 4.449219 13.800781 C 3.898438 12.601562 2 11.949219 2 12.949219 Z M 2 12.949219 "/>
<path style=" stroke:none;fill-rule:nonzero;fill:rgb(100%,100%,100%);fill-opacity:1;" d="M 5 12.949219 C 5 13.25 5.550781 14.101562 6.25 14.851562 L 7.449219 16.25 L 7.5 14.351562 C 7.5 12.699219 7.351562 12.5 6.25 12.5 C 5.550781 12.5 5 12.699219 5 12.949219 Z M 5 12.949219 "/>
<path style=" stroke:none;fill-rule:nonzero;fill:rgb(100%,100%,100%);fill-opacity:1;" d="M 8.5 14.351562 L 8.550781 16.25 L 9.75 14.851562 C 11.351562 13.050781 11.300781 12.5 9.75 12.5 C 8.648438 12.5 8.5 12.699219 8.5 14.351562 Z M 8.5 14.351562 "/>
<path style=" stroke:none;fill-rule:nonzero;fill:rgb(100%,100%,100%);fill-opacity:1;" d="M 11.550781 13.800781 C 11.25 14.550781 11.050781 15.199219 11.148438 15.300781 C 11.449219 15.601562 14 13.5 14 12.949219 C 14 11.949219 12.101562 12.601562 11.550781 13.800781 Z M 11.550781 13.800781 "/>
</g>
</svg>
