<?xml version="1.0" standalone="no"?>
<!DOCTYPE svg PUBLIC "-//W3C//DTD SVG 20010904//EN"
 "http://www.w3.org/TR/2001/REC-SVG-20010904/DTD/svg10.dtd">
<svg version="1.0" xmlns="http://www.w3.org/2000/svg"
 width="32.000000pt" height="32.000000pt" viewBox="0 0 32.000000 32.000000"
 preserveAspectRatio="xMidYMid meet">

<g transform="translate(0.000000,32.000000) scale(0.100000,-0.100000)"
fill="#FFFFFF" stroke="none">
<path d="M121 294 c-27 -35 -26 -44 4 -44 22 0 25 4 25 35 0 19 -2 35 -4 35
-3 0 -14 -12 -25 -26z"/>
<path d="M170 288 c0 -34 3 -38 25 -38 31 0 32 11 0 47 l-24 28 -1 -37z"/>
<path d="M67 289 c-31 -24 -35 -39 -9 -39 11 0 24 12 31 26 16 35 10 39 -22
13z"/>
<path d="M220 306 c0 -20 27 -56 42 -56 23 0 23 13 1 32 -23 19 -43 31 -43 24z"/>
<path d="M6 208 c-9 -36 -8 -38 29 -38 32 0 35 2 35 30 0 26 -3 30 -29 30 -21
0 -30 -6 -35 -22z"/>
<path d="M90 200 c0 -27 3 -30 30 -30 27 0 30 3 30 30 0 27 -3 30 -30 30 -27
0 -30 -3 -30 -30z"/>
<path d="M170 200 c0 -27 3 -30 30 -30 27 0 30 3 30 30 0 27 -3 30 -30 30 -27
0 -30 -3 -30 -30z"/>
<path d="M250 200 c0 -28 3 -30 36 -30 33 0 36 2 30 23 -3 12 -6 25 -6 30 0 4
-13 7 -30 7 -27 0 -30 -3 -30 -30z"/>
<path d="M0 141 c0 -32 21 -61 45 -61 22 0 25 4 25 35 0 33 -2 35 -35 35 -19
0 -35 -4 -35 -9z"/>
<path d="M92 118 c2 -28 8 -34 31 -36 25 -3 27 -1 27 32 0 33 -2 36 -31 36
-28 0 -30 -2 -27 -32z"/>
<path d="M170 114 c0 -33 2 -35 28 -32 22 2 28 8 30 36 3 30 1 32 -27 32 -29
0 -31 -3 -31 -36z"/>
<path d="M250 115 c0 -31 3 -35 25 -35 18 0 28 7 35 26 15 39 13 44 -25 44
-33 0 -35 -2 -35 -35z"/>
<path d="M40 61 c0 -11 51 -53 57 -47 2 2 -2 15 -8 30 -11 24 -49 37 -49 17z"/>
<path d="M100 61 c0 -6 11 -23 25 -38 l24 -28 1 38 c0 33 -3 37 -25 37 -14 0
-25 -4 -25 -9z"/>
<path d="M170 33 l1 -38 24 28 c32 36 31 47 0 47 -22 0 -25 -4 -25 -37z"/>
<path d="M231 44 c-6 -15 -10 -28 -8 -30 6 -6 57 36 57 47 0 20 -38 7 -49 -17z"/>
</g>
</svg>
