<?xml version="1.0" standalone="no"?>
<!DOCTYPE svg PUBLIC "-//W3C//DTD SVG 20010904//EN"
 "http://www.w3.org/TR/2001/REC-SVG-20010904/DTD/svg10.dtd">
<svg version="1.0" xmlns="http://www.w3.org/2000/svg"
 width="32.000000pt" height="32.000000pt" viewBox="0 0 32.000000 32.000000"
 preserveAspectRatio="xMidYMid meet">

<g transform="translate(0.000000,32.000000) scale(0.100000,-0.100000)"
fill="#737373" stroke="none">
<path d="M124 310 c-49 -19 -70 -93 -40 -136 13 -19 12 -22 -21 -48 -50 -41
-83 -126 -48 -126 9 0 15 9 15 21 0 57 62 109 130 109 68 0 130 -52 130 -109
0 -12 6 -21 15 -21 35 0 2 85 -48 126 -33 26 -34 29 -21 48 24 35 18 84 -15
117 -30 29 -58 35 -97 19z m72 -28 c41 -27 35 -93 -11 -114 -52 -23 -110 35
-84 85 15 29 28 37 59 37 14 0 30 -4 36 -8z"/>
</g>
</svg>
