<?xml version="1.0" standalone="no"?>
<!DOCTYPE svg PUBLIC "-//W3C//DTD SVG 20010904//EN"
 "http://www.w3.org/TR/2001/REC-SVG-20010904/DTD/svg10.dtd">
<svg version="1.0" xmlns="http://www.w3.org/2000/svg"
 width="32.000000pt" height="32.000000pt" viewBox="0 0 32.000000 32.000000"
 preserveAspectRatio="xMidYMid meet">

<g transform="translate(0.000000,32.000000) scale(0.100000,-0.100000)"
fill="#737373" stroke="none">
<path d="M95 306 c-101 -44 -125 -178 -46 -257 65 -65 157 -65 222 0 124 124
-15 327 -176 257z m112 -17 c96 -36 121 -151 48 -223 -88 -88 -230 -30 -230
94 0 57 24 96 76 122 39 21 66 22 106 7z"/>
<path d="M123 225 c-8 -22 4 -30 22 -15 26 22 39 -3 15 -30 -22 -25 -25 -36
-12 -44 12 -7 52 49 52 73 0 31 -65 45 -77 16z"/>
<path d="M146 113 c-11 -11 -6 -23 9 -23 8 0 15 4 15 9 0 13 -16 22 -24 14z"/>
</g>
</svg>
