<?xml version="1.0" standalone="no"?>
<!DOCTYPE svg PUBLIC "-//W3C//DTD SVG 20010904//EN"
 "http://www.w3.org/TR/2001/REC-SVG-20010904/DTD/svg10.dtd">
<svg version="1.0" xmlns="http://www.w3.org/2000/svg"
 width="32.000000pt" height="32.000000pt" viewBox="0 0 32.000000 32.000000"
 preserveAspectRatio="xMidYMid meet">

<g transform="translate(0.000000,32.000000) scale(0.100000,-0.100000)"
fill="#737373" stroke="none">
<path d="M42 278 c-8 -8 -12 -49 -12 -120 0 -130 -2 -128 134 -128 124 0 126
2 126 126 0 136 2 134 -128 134 -71 0 -112 -4 -120 -12z m226 -10 c16 -16 16
-200 0 -216 -16 -16 -200 -16 -216 0 -16 16 -16 200 0 216 16 16 200 16 216 0z"/>
<path d="M90 205 c-11 -13 -10 -14 3 -9 13 5 17 -3 20 -43 l3 -48 2 48 c2 36
5 46 15 41 8 -5 8 -2 -2 9 -17 21 -25 21 -41 2z"/>
<path d="M202 167 c-2 -35 -5 -46 -14 -41 -7 4 -5 -2 5 -12 16 -17 18 -18 35
-1 15 17 15 18 0 12 -14 -6 -17 1 -21 42 l-3 48 -2 -48z"/>
</g>
</svg>
