<?xml version="1.0" standalone="no"?>
<!DOCTYPE svg PUBLIC "-//W3C//DTD SVG 20010904//EN"
 "http://www.w3.org/TR/2001/REC-SVG-20010904/DTD/svg10.dtd">
<svg version="1.0" xmlns="http://www.w3.org/2000/svg"
 width="32.000000pt" height="32.000000pt" viewBox="0 0 32.000000 32.000000"
 preserveAspectRatio="xMidYMid meet">

<g transform="translate(0.000000,32.000000) scale(0.100000,-0.100000)"
fill="#000000" stroke="none">
<path d="M140 310 c0 -5 -13 -16 -30 -25 -39 -20 -60 -63 -60 -123 0 -35 -6
-57 -21 -76 l-20 -26 151 0 151 0 -20 26 c-15 19 -21 41 -21 75 0 65 -15 95
-67 130 -46 30 -63 36 -63 19z"/>
<path d="M110 41 c0 -16 31 -41 50 -41 19 0 50 25 50 41 0 5 -22 9 -50 9 -27
0 -50 -4 -50 -9z"/>
</g>
</svg>
