<?xml version="1.0" standalone="no"?>
<!DOCTYPE svg PUBLIC "-//W3C//DTD SVG 20010904//EN"
 "http://www.w3.org/TR/2001/REC-SVG-20010904/DTD/svg10.dtd">
<svg version="1.0" xmlns="http://www.w3.org/2000/svg"
 width="24.000000pt" height="24.000000pt" viewBox="0 0 24.000000 24.000000"
 preserveAspectRatio="xMidYMid meet">

<g transform="translate(0.000000,24.000000) scale(0.100000,-0.100000)"
fill="#000000" stroke="none">
<path d="M29 211 c-37 -38 -38 -79 -2 -121 25 -30 30 -32 77 -27 48 5 53 3 88
-31 49 -47 63 -33 16 16 -34 35 -36 40 -31 88 5 47 3 52 -27 77 -42 36 -83 35
-121 -2z m114 -24 c24 -28 18 -66 -15 -90 -51 -38 -121 10 -101 70 18 53 79
64 116 20z"/>
</g>
</svg>
