<?xml version="1.0" standalone="no"?>
<!DOCTYPE svg PUBLIC "-//W3C//DTD SVG 20010904//EN"
 "http://www.w3.org/TR/2001/REC-SVG-20010904/DTD/svg10.dtd">
<svg version="1.0" xmlns="http://www.w3.org/2000/svg"
 width="24.000000pt" height="24.000000pt" viewBox="0 0 24.000000 24.000000"
 preserveAspectRatio="xMidYMid meet">

<g transform="translate(0.000000,24.000000) scale(0.100000,-0.100000)"
fill="#FFFFFF" stroke="none">
<path d="M136 205 c-9 -9 -16 -23 -16 -31 0 -20 -29 -17 -68 6 -18 11 -35 20
-38 20 -10 0 4 -84 15 -88 6 -2 9 -8 6 -12 -3 -5 4 -15 16 -24 l22 -15 -27 -7
c-36 -9 -33 -21 8 -28 44 -8 109 17 132 52 15 23 22 42 39 114 2 11 -2 17 -13
16 -9 0 -26 3 -38 7 -13 4 -27 1 -38 -10z"/>
</g>
</svg>
