<?xml version="1.0" standalone="no"?>
<!DOCTYPE svg PUBLIC "-//W3C//DTD SVG 20010904//EN"
 "http://www.w3.org/TR/2001/REC-SVG-20010904/DTD/svg10.dtd">
<svg version="1.0" xmlns="http://www.w3.org/2000/svg"
 width="64.000000pt" height="64.000000pt" viewBox="0 0 64.000000 64.000000"
 preserveAspectRatio="xMidYMid meet">

<g transform="translate(0.000000,64.000000) scale(0.100000,-0.100000)"
fill="#000000" stroke="none">
<path d="M110 470 c0 -144 -2 -170 -15 -170 -11 0 -15 -11 -15 -40 l0 -40 45
0 c38 0 55 -7 100 -41 30 -23 55 -45 55 -49 0 -4 -26 -27 -57 -50 -32 -24 -60
-44 -61 -46 -2 -1 0 -10 5 -19 8 -14 19 -9 78 35 38 27 73 50 78 50 4 0 38
-23 74 -50 49 -37 69 -47 75 -38 12 21 11 22 -52 68 -33 24 -59 47 -58 51 2 5
27 26 57 49 44 32 63 40 98 40 l43 0 0 40 c0 29 -4 40 -15 40 -13 0 -15 26
-15 170 0 163 -1 170 -20 170 -13 0 -20 -7 -20 -20 0 -19 -7 -20 -170 -20
-163 0 -170 1 -170 20 0 13 -7 20 -20 20 -19 0 -20 -7 -20 -170z m380 -115 l0
-55 -170 0 -170 0 0 55 0 55 170 0 170 0 0 -55z m-120 -165 c-19 -16 -39 -30
-44 -30 -10 0 -86 50 -86 56 0 2 37 4 83 4 l82 -1 -35 -29z"/>
</g>
</svg>
