<?xml version="1.0" standalone="no"?>
<!DOCTYPE svg PUBLIC "-//W3C//DTD SVG 20010904//EN"
 "http://www.w3.org/TR/2001/REC-SVG-20010904/DTD/svg10.dtd">
<svg version="1.0" xmlns="http://www.w3.org/2000/svg"
 width="32.000000pt" height="32.000000pt" viewBox="0 0 32.000000 32.000000"
 preserveAspectRatio="xMidYMid meet">

<g transform="translate(0.000000,32.000000) scale(0.100000,-0.100000)"
fill="#737373" stroke="none">
<path d="M128 203 c-105 -106 -118 -123 -124 -162 l-7 -44 44 7 c39 6 56 19
162 124 64 64 117 123 117 130 0 17 -45 62 -62 62 -7 0 -66 -53 -130 -117z
m157 77 c14 -16 16 -23 7 -32 -10 -10 -17 -7 -33 9 -12 11 -18 26 -15 32 10
16 21 14 41 -9z m-40 -40 c19 -21 18 -22 -76 -114 -55 -55 -105 -96 -122 -100
-26 -6 -27 -5 -21 21 6 25 178 213 195 213 3 0 14 -9 24 -20z"/>
</g>
</svg>
